<?xml version="1.0" encoding="UTF-8"?>
<svg version="1.1" xmlns="http://www.w3.org/2000/svg" width="512" height="512">
<path d="M0 0 C3.44179239 0.01139363 6.88327598 0.00457794 10.32505798 -0.00682831 C22.96879641 -0.04295489 35.61140055 0.02491003 48.22607422 0.96386719 C49.54303284 1.04238922 49.54303284 1.04238922 50.88659668 1.12249756 C56.69438498 1.64597542 59.549518 3.06354005 63.63232422 7.26074219 C65.48959038 10.9752745 65.21733511 15.21653644 64.63232422 19.26074219 C62.44209504 22.08498507 60.80215215 23.67582822 57.63232422 25.26074219 C55.42588826 25.36130361 53.2160457 25.39039213 51.00732422 25.38574219 C49.81880859 25.38832031 48.63029297 25.39089844 47.40576172 25.39355469 C43.42813102 25.32946441 39.47891773 25.04658643 35.51123047 24.76464844 C25.07958715 24.05993442 14.64631638 24.0608093 4.19482422 24.07324219 C3.17531677 24.07417877 2.15580933 24.07511536 1.10540771 24.07608032 C-14.13893949 24.10640589 -29.22822217 24.29896993 -44.36767578 26.26074219 C-45.5792334 26.41671875 -46.79079102 26.57269531 -48.0390625 26.73339844 C-121.08405956 36.48597562 -192.12858134 66.94462674 -237.99267578 126.63574219 C-240.14319589 129.49246922 -242.26167149 132.37109239 -244.36767578 135.26074219 C-244.80289551 135.84984375 -245.23811523 136.43894531 -245.68652344 137.04589844 C-259.12574007 155.41229516 -269.21845661 176.71590261 -276.36767578 198.26074219 C-276.64546875 199.09653809 -276.92326172 199.93233398 -277.20947266 200.79345703 C-293.25189013 249.91156464 -294.09653366 304.13778633 -277.36767578 353.26074219 C-277.11260254 354.01371582 -276.8575293 354.76668945 -276.59472656 355.54248047 C-266.9401794 383.65204367 -252.90396227 408.61438616 -232.36767578 430.26074219 C-231.90022949 430.7607373 -231.4327832 431.26073242 -230.95117188 431.77587891 C-193.8685303 471.23392101 -138.6280363 486.50846433 -85.81933594 488.38696289 C-45.96949643 489.20536812 -7.77697452 483.44685056 27.63232422 464.26074219 C28.70095703 463.68453125 29.76958984 463.10832031 30.87060547 462.51464844 C78.62211159 435.69700622 106.69492836 387.40269563 121.63232422 336.26074219 C128.23379544 312.48875889 130.85825566 287.94711852 130.81982422 263.32324219 C130.81921997 262.60219299 130.81861572 261.8811438 130.81799316 261.13824463 C130.6816117 200.83601795 112.56494987 137.99779465 71.97998047 92.27246094 C64.37921892 83.59102239 64.37921892 83.59102239 64.28857422 77.26855469 C65.0004307 73.11066567 67.13548477 70.43683033 70.38232422 67.88574219 C75.19886836 66.54781326 79.06423473 66.56010646 83.56982422 68.57324219 C88.38575798 72.2667632 91.91841597 77.5247156 95.63232422 82.26074219 C96.29361328 83.05738281 96.95490234 83.85402344 97.63623047 84.67480469 C126.15954591 119.13327466 142.50587652 163.09688167 150.44482422 206.63574219 C150.63979492 207.70276367 150.83476562 208.76978516 151.03564453 209.86914062 C154.05662358 227.47819837 155.01413817 244.98138625 154.94482422 262.82324219 C154.94266907 263.8282074 154.94051392 264.83317261 154.93829346 265.86859131 C154.71170659 331.94420204 134.48950911 399.22072929 88.09179688 447.73388672 C87.10723995 448.76389994 86.12784282 449.79886678 85.15332031 450.83837891 C56.96440608 480.83298871 18.57857918 499.72329737 -21.36767578 508.26074219 C-22.8466333 508.57833496 -22.8466333 508.57833496 -24.35546875 508.90234375 C-55.67383621 515.25154531 -90.93217517 514.70794399 -122.36767578 509.26074219 C-124.19758057 508.95475098 -124.19758057 508.95475098 -126.06445312 508.64257812 C-180.24254441 499.41706103 -229.0801971 476.50818964 -263.36767578 432.26074219 C-263.79161621 431.71853027 -264.21555664 431.17631836 -264.65234375 430.61767578 C-272.58327319 420.40917581 -279.26467992 409.65016738 -285.36767578 398.26074219 C-286.00769531 397.06698975 -286.00769531 397.06698975 -286.66064453 395.84912109 C-298.37467868 373.58795081 -306.07953752 349.00409901 -310.36767578 324.26074219 C-310.6088916 322.96378418 -310.6088916 322.96378418 -310.85498047 321.640625 C-316.02629531 293.01179955 -315.50894013 260.87083414 -310.36767578 232.26074219 C-310.19075195 231.26139648 -310.01382812 230.26205078 -309.83154297 229.23242188 C-300.96793086 180.56675195 -279.63881661 133.33562727 -245.36767578 97.26074219 C-244.23580978 95.95415862 -243.11037426 94.64196557 -241.99267578 93.32324219 C-233.90553183 84.05909606 -225.06206347 75.8156788 -215.36767578 68.26074219 C-214.36091797 67.46023437 -213.35416016 66.65972656 -212.31689453 65.83496094 C-165.63745698 28.98694327 -108.07746238 8.95181839 -49.36767578 2.26074219 C-48.27579956 2.13104034 -48.27579956 2.13104034 -47.16186523 1.99871826 C-31.45488707 0.17771801 -15.79384039 -0.05272635 0 0 Z " fill="#32CCCC" transform="translate(335.36767578125,-0.2607421875)"/>
<path d="M0 0 C1.12535156 0.04833984 1.12535156 0.04833984 2.2734375 0.09765625 C5.77760855 1.34914591 7.60350086 3.93829458 9.625 6.9375 C10.70641622 9.55852357 11.58012566 11.99323626 12.3671875 14.6953125 C12.60860474 15.47979263 12.85002197 16.26427277 13.09875488 17.07252502 C13.91313827 19.73181403 14.70647583 22.39691865 15.5 25.0625 C16.08031888 26.97408623 16.66190672 28.88528759 17.24462891 30.79614258 C18.5855841 35.20387425 19.91656326 39.61448948 21.2421875 44.02685547 C23.76207278 52.40674151 26.31240131 60.7772727 28.86260605 69.14797211 C30.98038312 76.10170441 33.09354981 83.05683955 35.20627594 90.01210785 C35.73677123 91.75846661 36.26738605 93.50478907 36.79811859 95.25107574 C38.32747707 100.28381318 39.85391355 105.31741868 41.37586975 110.35239983 C41.84687342 111.9090968 42.31883845 113.46550324 42.79179382 115.02160835 C43.44241727 117.1629597 44.08958525 119.30532484 44.73583984 121.44799805 C45.10220551 122.65795944 45.46857117 123.86792084 45.84603882 125.11454773 C46.625 127.9375 46.625 127.9375 46.625 129.9375 C47.13160156 129.77894531 47.63820313 129.62039063 48.16015625 129.45703125 C51.48044644 128.75719196 54.67086562 128.68886626 58.0625 128.625 C60.00962891 128.56892578 60.00962891 128.56892578 61.99609375 128.51171875 C66.15881041 129.00013222 67.70373842 130.00543893 70.625 132.9375 C72.87678184 136.62223393 72.92256352 139.85930731 72.203125 144.01171875 C71.13476563 147.57051042 69.68311109 148.83879631 66.625 150.9375 C64.57581726 151.5445706 62.50631081 152.08525928 60.42578125 152.57421875 C59.34079346 152.83291748 58.25580566 153.09161621 57.13793945 153.3581543 C56.30866943 153.54933838 55.47939941 153.74052246 54.625 153.9375 C54.98205017 155.09142494 54.98205017 155.09142494 55.34631348 156.2686615 C57.59578697 163.54652974 59.83302446 170.82799649 62.05687714 178.11373043 C63.20039517 181.85858215 64.34846264 185.60190623 65.50732422 189.34204102 C66.6271335 192.95675027 67.73447172 196.5750717 68.83354187 200.19613838 C69.25336277 201.57164584 69.6775349 202.94583358 70.10627747 204.31858635 C74.45053272 218.24750467 74.45053272 218.24750467 73.625 225.9375 C71.87467427 228.99346626 69.82517909 231.33741045 66.625 232.9375 C64.671875 233.2109375 64.671875 233.2109375 62.375 233.3125 C61.62734375 233.36148438 60.8796875 233.41046875 60.109375 233.4609375 C56.42589906 232.68485924 54.04741698 230.71467293 51.625 227.9375 C50.09935741 224.92221859 49.18604572 221.79697666 48.2578125 218.5546875 C47.97679687 217.63472488 47.69578125 216.71476227 47.40625 215.766922 C46.50130995 212.78760282 45.62542991 209.80060898 44.75 206.8125 C44.13572783 204.77005421 43.5196737 202.72814352 42.90185547 200.68676758 C41.39315364 195.68514667 39.9074367 190.67708414 38.43066406 185.66595459 C37.27721415 181.75969161 36.10745104 177.85837625 34.9375 173.95703125 C33.14358464 167.9571685 31.37087071 161.95151698 29.625 155.9375 C9.95460408 157.56091244 -9.71039533 159.24566591 -29.375 160.9375 C-29.47248535 161.8248584 -29.5699707 162.7122168 -29.67041016 163.62646484 C-30.51379964 169.49349821 -32.14625068 175.18869117 -33.6484375 180.9140625 C-33.97284821 182.15747406 -34.29725891 183.40088562 -34.63150024 184.68197632 C-35.31632175 187.30337284 -36.00435028 189.92390361 -36.69433594 192.54394531 C-37.57544562 195.89183611 -38.44565742 199.24245492 -39.31314659 202.59389687 C-40.14697312 205.8066569 -40.99215634 209.01640264 -41.8359375 212.2265625 C-42.14542328 213.42560211 -42.45490906 214.62464172 -42.77377319 215.86001587 C-43.07063019 216.97822723 -43.36748718 218.0964386 -43.67333984 219.24853516 C-43.93013519 220.22891754 -44.18693054 221.20929993 -44.45150757 222.21939087 C-45.90968586 226.51123732 -47.3450288 229.27374078 -51.1875 231.75 C-54.66027677 233.04377958 -56.71041221 233.47191905 -60.375 232.9375 C-64.0328218 230.89756092 -66.04446174 229.43330738 -68.375 225.9375 C-69.52724268 218.18481478 -67.36122464 210.77777917 -65.3125 203.3671875 C-65.00175537 202.20494659 -64.69101074 201.04270569 -64.37084961 199.84524536 C-63.38386767 196.16441356 -62.37974012 192.48851946 -61.375 188.8125 C-60.69937925 186.30499481 -60.02488834 183.7971849 -59.3515625 181.2890625 C-57.70576186 175.16828944 -56.04589105 169.05146843 -54.375 162.9375 C-55.26775635 163.07838547 -56.1605127 163.21927094 -57.08032227 163.36442566 C-58.83687134 163.63879204 -58.83687134 163.63879204 -60.62890625 163.91870117 C-62.37022827 164.19190437 -62.37022827 164.19190437 -64.14672852 164.47062683 C-67.57554328 164.9665026 -70.9102436 165.236742 -74.375 165.25 C-75.40625 165.26675781 -76.4375 165.28351563 -77.5 165.30078125 C-80.84491576 164.87812206 -82.67931326 163.93586499 -85.375 161.9375 C-88.21128194 157.68307709 -87.89345373 153.93060819 -87.375 148.9375 C-86.14932619 145.99588285 -85.34808362 144.54628397 -82.66186523 142.86572266 C-79.77174833 141.69264435 -77.13813072 141.40504958 -74.03515625 141.0859375 C-72.80732422 140.95703125 -71.57949219 140.828125 -70.31445312 140.6953125 C-69.03505859 140.56898438 -67.75566406 140.44265625 -66.4375 140.3125 C-65.16197266 140.1784375 -63.88644531 140.044375 -62.57226562 139.90625 C-57.48185757 139.38306176 -52.493773 138.90372389 -47.375 138.9375 C-47.14883499 137.95031982 -46.92266998 136.96313965 -46.68965149 135.94604492 C-44.00335002 124.32161383 -41.03067463 112.78356276 -37.98046875 101.25 C-37.46472701 99.29398279 -36.94913065 97.33792725 -36.43367004 95.38183594 C-35.35851132 91.30381612 -34.28178015 87.22621585 -33.20385742 83.14892578 C-32.11310761 79.02279222 -31.02421377 74.89617706 -29.93725586 70.76904297 C-27.10509836 60.01571952 -24.26283821 49.26526091 -21.39304924 38.52191162 C-20.15347671 33.87757329 -18.92736747 29.23027975 -17.72441006 24.57632446 C-16.97060595 21.6725931 -16.19668393 18.77423078 -15.42578125 15.875 C-15.0579377 14.41368652 -15.0579377 14.41368652 -14.68266296 12.92285156 C-13.25758522 7.66181034 -11.83691636 4.40686139 -7.375 0.9375 C-4.50068428 -0.02060524 -2.95730739 -0.19681739 0 0 Z M-1.375 55.9375 C-3.96872222 65.61177516 -6.55939954 75.28686005 -9.14621639 84.96298409 C-10.34753346 89.45619226 -11.54988888 93.94911715 -12.75463867 98.44140625 C-13.91772009 102.77847568 -15.07804595 107.11627377 -16.23648262 111.45458603 C-16.67844595 113.10779827 -17.12139363 114.7607477 -17.56535149 116.41342545 C-18.1880386 118.73211825 -18.80718726 121.05172938 -19.42553711 123.37158203 C-19.6089566 124.05131577 -19.7923761 124.7310495 -19.98135376 125.43138123 C-20.99375462 129.24634132 -21.79088875 133.03404452 -22.375 136.9375 C-16.44805711 136.39067235 -10.52157014 135.83921635 -4.59545898 135.28344727 C-2.57897638 135.0949955 -0.56237465 134.90781397 1.4543457 134.72192383 C4.35139634 134.45466823 7.24798928 134.18286275 10.14453125 133.91015625 C11.04774612 133.82782242 11.950961 133.74548859 12.88154602 133.66065979 C13.72219101 133.58065231 14.562836 133.50064484 15.42895508 133.41821289 C16.16841873 133.34937393 16.90788239 133.28053497 17.66975403 133.20960999 C19.8348843 132.96889523 19.8348843 132.96889523 22.625 131.9375 C20.4842345 122.94718235 17.94967187 114.10876512 15.24609375 105.2734375 C14.82910584 103.90534935 14.41220172 102.53723565 13.99537659 101.1690979 C13.12939159 98.32966993 12.26090855 95.49102013 11.39086914 92.65283203 C10.27595445 89.01432199 9.16980234 85.37320956 8.06570339 81.73140526 C7.21129214 78.91802312 6.35116664 76.10641261 5.48939705 73.29527664 C5.07868558 71.95225855 4.67003276 70.6086091 4.26348686 69.26432419 C3.69785337 67.39623108 3.12343098 65.53080589 2.54858398 63.66552734 C2.22454086 62.60473969 1.90049774 61.54395203 1.56663513 60.45101929 C0.77594834 57.81238186 0.77594834 57.81238186 -1.375 55.9375 Z " fill="#000000" transform="translate(225.375,167.0625)"/>
<path d="M0 0 C2.35021205 1.8279427 3.71379309 3.20299453 5.25 5.75 C5.59057617 8.68261719 5.59057617 8.68261719 5.54296875 12.046875 C5.5284668 13.85478516 5.5284668 13.85478516 5.51367188 15.69921875 C5.48853516 16.95347656 5.46339844 18.20773438 5.4375 19.5 C5.41719727 21.40458984 5.41719727 21.40458984 5.39648438 23.34765625 C5.3611324 26.48219844 5.31178248 29.61588545 5.25 32.75 C5.95922607 32.74709961 6.66845215 32.74419922 7.39916992 32.74121094 C30.8878258 32.68572436 30.8878258 32.68572436 36.25 37.75 C38.94346914 41.79020371 38.80014255 45.00710439 38.25 49.75 C36.62599816 53.38467079 35.58886956 54.52408696 32.25 56.75 C26.89623274 57.85537981 21.90412696 57.75225145 16.5 57.375 C15.74589844 57.33117187 14.99179687 57.28734375 14.21484375 57.2421875 C11.03527639 57.03887591 8.28563788 56.76187929 5.25 55.75 C5.27094727 56.96059082 5.29189453 58.17118164 5.31347656 59.41845703 C5.3860654 63.92468361 5.43186835 68.43085884 5.46972656 72.9375 C5.48979906 74.88517966 5.51706332 76.83279937 5.55175781 78.78027344 C5.60046852 81.58543721 5.62301241 84.38980187 5.640625 87.1953125 C5.66127014 88.06116974 5.68191528 88.92702698 5.70318604 89.81912231 C5.70520128 95.29138727 4.92479222 98.42147802 1.25 102.75 C-2.38169503 105.0702496 -5.67637053 105.00893217 -9.81640625 104.3671875 C-13.00312706 103.35001197 -14.69992612 101.29706149 -16.75 98.75 C-17.89315747 96.46368506 -17.87112732 95.20652594 -17.86352539 92.66748047 C-17.86344986 91.82675995 -17.86337433 90.98603943 -17.86329651 90.11984253 C-17.85813522 89.21146637 -17.85297394 88.30309021 -17.84765625 87.3671875 C-17.8462413 86.43778351 -17.84482635 85.50837952 -17.84336853 84.55081177 C-17.83776053 81.57550876 -17.82520668 78.60028036 -17.8125 75.625 C-17.80748603 73.61067817 -17.80292295 71.59635516 -17.79882812 69.58203125 C-17.7877885 64.63799198 -17.77051849 59.69400865 -17.75 54.75 C-18.44561035 54.73541748 -19.1412207 54.72083496 -19.85791016 54.70581055 C-23.03081338 54.63102031 -26.20270008 54.53446188 -29.375 54.4375 C-30.46941406 54.41494141 -31.56382812 54.39238281 -32.69140625 54.36914062 C-39.41022416 54.14518003 -44.64912889 53.90331714 -49.59765625 48.87109375 C-51.69941112 45.00243987 -51.37262109 41.01841344 -50.75 36.75 C-48.41679034 32.60207172 -46.19723626 31.18134041 -41.75 29.75 C-38.97924805 29.61474609 -38.97924805 29.61474609 -36.01171875 29.7734375 C-34.94501953 29.825 -33.87832031 29.8765625 -32.77929688 29.9296875 C-31.12510742 30.02636719 -31.12510742 30.02636719 -29.4375 30.125 C-27.75430664 30.21007812 -27.75430664 30.21007812 -26.03710938 30.296875 C-23.27405926 30.43796692 -20.51197015 30.58934281 -17.75 30.75 C-17.78927612 29.66114502 -17.78927612 29.66114502 -17.8293457 28.55029297 C-17.9336681 25.24208459 -17.99843872 21.9342228 -18.0625 18.625 C-18.10439453 17.48289062 -18.14628906 16.34078125 -18.18945312 15.1640625 C-18.32761915 5.65824003 -18.32761915 5.65824003 -15.41796875 2.0078125 C-10.78942621 -1.90916786 -5.56382547 -2.52901158 0 0 Z " fill="#000000" transform="translate(342.75,103.25)"/>
</svg>
